<svg viewBox="0 0 570.6000366210938 400" xmlns="http://www.w3.org/2000/svg"><g><g><g><g><g><line x1="58" y1="378" x2="53" y2="378" style="visibility: inherit;" fill="rgb(0, 0, 0)" stroke="rgb(204, 204, 204)" stroke-width="1px"></line><line x1="58" y1="340.19999999999993" x2="53" y2="340.19999999999993" style="visibility: inherit;" fill="rgb(0, 0, 0)" stroke="rgb(204, 204, 204)" stroke-width="1px"></line><line x1="58" y1="302.3999999999999" x2="53" y2="302.3999999999999" style="visibility: inherit;" fill="rgb(0, 0, 0)" stroke="rgb(204, 204, 204)" stroke-width="1px"></line><line x1="58" y1="264.6000000000001" x2="53" y2="264.6000000000001" style="visibility: inherit;" fill="rgb(0, 0, 0)" stroke="rgb(204, 204, 204)" stroke-width="1px"></line><line x1="58" y1="226.80000000000004" x2="53" y2="226.80000000000004" style="visibility: inherit;" fill="rgb(0, 0, 0)" stroke="rgb(204, 204, 204)" stroke-width="1px"></line><line x1="58" y1="189" x2="53" y2="189" style="visibility: inherit;" fill="rgb(0, 0, 0)" stroke="rgb(204, 204, 204)" stroke-width="1px"></line><line x1="58" y1="151.19999999999996" x2="53" y2="151.19999999999996" style="visibility: inherit;" fill="rgb(0, 0, 0)" stroke="rgb(204, 204, 204)" stroke-width="1px"></line><line x1="58" y1="113.39999999999992" x2="53" y2="113.39999999999992" style="visibility: inherit;" fill="rgb(0, 0, 0)" stroke="rgb(204, 204, 204)" stroke-width="1px"></line><line x1="58" y1="75.59999999999985" x2="53" y2="75.59999999999985" style="visibility: inherit;" fill="rgb(0, 0, 0)" stroke="rgb(204, 204, 204)" stroke-width="1px"></line><line x1="58" y1="37.80000000000001" x2="53" y2="37.80000000000001" style="visibility: inherit;" fill="rgb(0, 0, 0)" stroke="rgb(204, 204, 204)" stroke-width="1px"></line><line x1="58" y1="0" x2="53" y2="0" style="visibility: inherit;" fill="rgb(0, 0, 0)" stroke="rgb(204, 204, 204)" stroke-width="1px"></line></g><g transform="translate(48, 0)"><text x="0" y="378" dx="0em" dy="0.3em" style="text-anchor: end; visibility: hidden; font-family: &quot;Helvetica Neue&quot;, sans-serif; font-size: 12px; font-weight: 200;" fill="rgb(50, 49, 63)" stroke="none" stroke-width="1px">0.52</text><text x="0" y="340.19999999999993" dx="0em" dy="0.3em" style="text-anchor: end; visibility: inherit; font-family: &quot;Helvetica Neue&quot;, sans-serif; font-size: 12px; font-weight: 200;" fill="rgb(50, 49, 63)" stroke="none" stroke-width="1px">0.54</text><text x="0" y="302.3999999999999" dx="0em" dy="0.3em" style="text-anchor: end; visibility: inherit; font-family: &quot;Helvetica Neue&quot;, sans-serif; font-size: 12px; font-weight: 200;" fill="rgb(50, 49, 63)" stroke="none" stroke-width="1px">0.56</text><text x="0" y="264.6000000000001" dx="0em" dy="0.3em" style="text-anchor: end; visibility: inherit; font-family: &quot;Helvetica Neue&quot;, sans-serif; font-size: 12px; font-weight: 200;" fill="rgb(50, 49, 63)" stroke="none" stroke-width="1px">0.58</text><text x="0" y="226.80000000000004" dx="0em" dy="0.3em" style="text-anchor: end; visibility: inherit; font-family: &quot;Helvetica Neue&quot;, sans-serif; font-size: 12px; font-weight: 200;" fill="rgb(50, 49, 63)" stroke="none" stroke-width="1px">0.6</text><text x="0" y="189" dx="0em" dy="0.3em" style="text-anchor: end; visibility: inherit; font-family: &quot;Helvetica Neue&quot;, sans-serif; font-size: 12px; font-weight: 200;" fill="rgb(50, 49, 63)" stroke="none" stroke-width="1px">0.62</text><text x="0" y="151.19999999999996" dx="0em" dy="0.3em" style="text-anchor: end; visibility: inherit; font-family: &quot;Helvetica Neue&quot;, sans-serif; font-size: 12px; font-weight: 200;" fill="rgb(50, 49, 63)" stroke="none" stroke-width="1px">0.64</text><text x="0" y="113.39999999999992" dx="0em" dy="0.3em" style="text-anchor: end; visibility: inherit; font-family: &quot;Helvetica Neue&quot;, sans-serif; font-size: 12px; font-weight: 200;" fill="rgb(50, 49, 63)" stroke="none" stroke-width="1px">0.66</text><text x="0" y="75.59999999999985" dx="0em" dy="0.3em" style="text-anchor: end; visibility: inherit; font-family: &quot;Helvetica Neue&quot;, sans-serif; font-size: 12px; font-weight: 200;" fill="rgb(50, 49, 63)" stroke="none" stroke-width="1px">0.68</text><text x="0" y="37.80000000000001" dx="0em" dy="0.3em" style="text-anchor: end; visibility: inherit; font-family: &quot;Helvetica Neue&quot;, sans-serif; font-size: 12px; font-weight: 200;" fill="rgb(50, 49, 63)" stroke="none" stroke-width="1px">0.7</text><text x="0" y="0" dx="0em" dy="0.3em" style="text-anchor: end; visibility: hidden; font-family: &quot;Helvetica Neue&quot;, sans-serif; font-size: 12px; font-weight: 200;" fill="rgb(50, 49, 63)" stroke="none" stroke-width="1px">0.72</text></g><line x1="58" y1="0" x2="58" y2="378" fill="rgb(0, 0, 0)" stroke="rgb(204, 204, 204)" stroke-width="1px"></line></g></g><g transform="translate(58, 0)" clip-path="url(#clip_0)"><clipPath id="clip_0"><rect width="512" height="378"></rect></clipPath><g><g><g><line x1="0" y1="0" x2="0" y2="378" fill="rgb(0, 0, 0)" stroke="rgb(60, 60, 60)" stroke-width="1px" opacity="0.25"></line><line x1="56.955555555555556" y1="0" x2="56.955555555555556" y2="378" fill="rgb(0, 0, 0)" stroke="rgb(60, 60, 60)" stroke-width="1px" opacity="0.25"></line><line x1="113.91111111111111" y1="0" x2="113.91111111111111" y2="378" fill="rgb(0, 0, 0)" stroke="rgb(60, 60, 60)" stroke-width="1px" opacity="0.25"></line><line x1="170.86666666666667" y1="0" x2="170.86666666666667" y2="378" fill="rgb(0, 0, 0)" stroke="rgb(60, 60, 60)" stroke-width="1px" opacity="0.25"></line><line x1="227.82222222222222" y1="0" x2="227.82222222222222" y2="378" fill="rgb(0, 0, 0)" stroke="rgb(60, 60, 60)" stroke-width="1px" opacity="0.25"></line><line x1="284.7777777777778" y1="0" x2="284.7777777777778" y2="378" fill="rgb(0, 0, 0)" stroke="rgb(60, 60, 60)" stroke-width="1px" opacity="0.25"></line><line x1="341.73333333333335" y1="0" x2="341.73333333333335" y2="378" fill="rgb(0, 0, 0)" stroke="rgb(60, 60, 60)" stroke-width="1px" opacity="0.25"></line><line x1="398.6888888888889" y1="0" x2="398.6888888888889" y2="378" fill="rgb(0, 0, 0)" stroke="rgb(60, 60, 60)" stroke-width="1px" opacity="0.25"></line><line x1="455.64444444444445" y1="0" x2="455.64444444444445" y2="378" fill="rgb(0, 0, 0)" stroke="rgb(60, 60, 60)" stroke-width="1px" opacity="0.25"></line><line x1="512.6" y1="0" x2="512.6" y2="378" fill="rgb(0, 0, 0)" stroke="rgb(60, 60, 60)" stroke-width="1px" opacity="0.25"></line></g><g><line x1="0" y1="378" x2="512.6" y2="378" fill="rgb(0, 0, 0)" stroke="rgb(60, 60, 60)" stroke-width="1px" opacity="0.25"></line><line x1="0" y1="340.19999999999993" x2="512.6" y2="340.19999999999993" fill="rgb(0, 0, 0)" stroke="rgb(60, 60, 60)" stroke-width="1px" opacity="0.25"></line><line x1="0" y1="302.3999999999999" x2="512.6" y2="302.3999999999999" fill="rgb(0, 0, 0)" stroke="rgb(60, 60, 60)" stroke-width="1px" opacity="0.25"></line><line x1="0" y1="264.6000000000001" x2="512.6" y2="264.6000000000001" fill="rgb(0, 0, 0)" stroke="rgb(60, 60, 60)" stroke-width="1px" opacity="0.25"></line><line x1="0" y1="226.80000000000004" x2="512.6" y2="226.80000000000004" fill="rgb(0, 0, 0)" stroke="rgb(60, 60, 60)" stroke-width="1px" opacity="0.25"></line><line x1="0" y1="189" x2="512.6" y2="189" fill="rgb(0, 0, 0)" stroke="rgb(60, 60, 60)" stroke-width="1px" opacity="0.25"></line><line x1="0" y1="151.19999999999996" x2="512.6" y2="151.19999999999996" fill="rgb(0, 0, 0)" stroke="rgb(60, 60, 60)" stroke-width="1px" opacity="0.25"></line><line x1="0" y1="113.39999999999992" x2="512.6" y2="113.39999999999992" fill="rgb(0, 0, 0)" stroke="rgb(60, 60, 60)" stroke-width="1px" opacity="0.25"></line><line x1="0" y1="75.59999999999985" x2="512.6" y2="75.59999999999985" fill="rgb(0, 0, 0)" stroke="rgb(60, 60, 60)" stroke-width="1px" opacity="0.25"></line><line x1="0" y1="37.80000000000001" x2="512.6" y2="37.80000000000001" fill="rgb(0, 0, 0)" stroke="rgb(60, 60, 60)" stroke-width="1px" opacity="0.25"></line><line x1="0" y1="0" x2="512.6" y2="0" fill="rgb(0, 0, 0)" stroke="rgb(60, 60, 60)" stroke-width="1px" opacity="0.25"></line></g></g></g><g><g><line x1="0" y1="1360.8000000000002" x2="512.6" y2="1360.8000000000002" fill="rgb(0, 0, 0)" stroke="rgb(153, 153, 153)" stroke-width="1.5px"></line></g></g><g><g><line x1="56.955555555555556" y1="0" x2="56.955555555555556" y2="378" fill="rgb(0, 0, 0)" stroke="rgb(153, 153, 153)" stroke-width="1.5px"></line></g></g><g><g><g><g><g><path stroke="rgb(51, 187, 238)" stroke-width="2px" d="M56.955555555555556,280.3392018556595L62.65111111111111,285.95490691017L68.34666666666666,283.4542912728822L74.04222222222222,260.1396709274333L79.73777777777778,231.48543911492763L85.43333333333334,244.1461171634946L91.1288888888889,238.3893830444263L96.82444444444445,234.53389060790224L102.52000000000001,222.44787195189295L108.21555555555555,216.8227425052734L113.91111111111111,200.91220333325433L119.60666666666667,194.18762115351748L125.30222222222223,199.3666964561868L130.99777777777777,191.33496896747073L136.69333333333333,183.7685557776336L142.3888888888889,178.3260389971718L148.08444444444444,171.7146103097099L153.78,181.28341273018296L159.47555555555556,172.07324625159708L165.17111111111112,173.47638324957185L170.86666666666667,170.01793528287902L176.56222222222223,160.36644940667915L182.2577777777778,139.98343488996824L187.95333333333332,152.06516012369175L193.6488888888889,145.60554600956652L199.34444444444446,161.48873745594867L205.04000000000002,155.09991326435173L210.73555555555555,158.5227335098149L216.4311111111111,168.14501758111496L222.1266666666667,162.593260681705L227.82222222222222,145.17798093248496L233.51777777777778,145.09502666915273L239.21333333333334,138.78112233730704L244.90888888888892,141.3635364197614L250.60444444444445,137.87017489891704L256.3,135.34449410114956L261.99555555555554,129.05140855401922L267.6911111111111,128.07511795463185L273.38666666666666,124.68907135605804L279.0822222222222,133.85514484039444L284.7777777777778,123.5076603781709" style="fill: none;" fill="none"></path></g><g><path stroke="rgb(255, 112, 67)" stroke-width="2px" d="M56.955555555555556,215.83410816192625L62.65111111111111,161.54946056184397L68.34666666666666,165.61542231352257L74.04222222222222,145.41864857914024L79.73777777777778,129.6453700588619L85.43333333333334,123.10313712497353L91.1288888888889,120.86300487202561L96.82444444444445,109.70790992887527L102.52000000000001,106.78482867088974L108.21555555555555,99.17174105750365L113.91111111111111,105.76476862842048L119.60666666666667,101.32088642613928L125.30222222222223,104.49926048828377L130.99777777777777,95.03526244630342L136.69333333333333,89.14167196497101L142.3888888888889,115.44818488221222L148.08444444444444,118.25128928088037L153.78,116.68850615597034L159.47555555555556,106.60799018723458L165.17111111111112,92.17184228397429L170.86666666666667,102.31579256361448L176.56222222222223,86.39771647020069L182.2577777777778,90.98538602732918L187.95333333333332,88.04464819428631L193.6488888888889,93.06838238779704L199.34444444444446,94.01905531950081L205.04000000000002,90.238620406015L210.73555555555555,91.07963223058545L216.4311111111111,79.17906256388653" style="fill: none;" fill="none"></path></g><g><path stroke="rgb(238, 51, 119)" stroke-width="2px" d="M56.955555555555556,199.7078629016876L62.65111111111111,177.24523882893575L68.34666666666666,151.3432588776597L74.04222222222222,152.56712253105053L79.73777777777778,136.5529057668739L85.43333333333334,116.31350766062741L91.1288888888889,131.11489701999375L96.82444444444445,139.0969617174681L102.52000000000001,139.84546359595856L108.21555555555555,125.49168223039243L113.91111111111111,131.93710411075892L119.60666666666667,124.65250027240074L125.30222222222223,124.89833775210192L130.99777777777777,121.46223216650884L136.69333333333333,124.39759966951189L142.3888888888889,116.62655219169966" style="fill: none;" fill="none"></path></g><g><path stroke="rgb(0, 119, 187)" stroke-width="2px" d="M74.04222222222222,378.39272724680166L79.73777777777778,304.46468374719524L85.43333333333334,233.09012767558434L91.1288888888889,195.87877813547783L96.82444444444445,143.92352847164847L102.52000000000001,108.31692978591263L108.21555555555555,85.38733326041694L113.91111111111111,70.16808723003169L119.60666666666667,62.109806027759646L125.30222222222223,64.52422787215579L130.99777777777777,50.901231681039974L136.69333333333333,29.417315941059712L142.3888888888889,18.45595839818901L148.08444444444444,14.148215852283386L153.78,11.938033552342858L159.47555555555556,30.039378645466343" style="fill: none;" fill="none"></path></g><g><path stroke="rgb(0, 153, 136)" stroke-width="2px" d="M56.955555555555556,360.97065346241L62.65111111111111,317.9173505895855L68.34666666666666,331.3438622767184L74.04222222222222,316.8208213564148L79.73777777777778,299.77415599505633L85.43333333333334,304.9585423045951L91.1288888888889,314.2904015707014L96.82444444444445,291.57585774837077L102.52000000000001,289.2300689341157L108.21555555555555,296.8937672353236L113.91111111111111,298.61038058428704L119.60666666666667,296.1798919181116L125.30222222222223,289.00602281528563L130.99777777777777,288.3855152522924L136.69333333333333,283.43836014961477L142.3888888888889,269.9974499448682L148.08444444444444,269.28567049943L153.78,274.14848810887406L159.47555555555556,259.75186172290614L165.17111111111112,255.62092871031234L170.86666666666667,238.32717595780466L176.56222222222223,250.86788650093848L182.2577777777778,252.77878300640617L187.95333333333332,236.28448496605913L193.6488888888889,232.4053512400816L199.34444444444446,232.28206002025078L205.04000000000002,228.61879510430276L210.73555555555555,213.46155995844404L216.4311111111111,198.9298319300168L222.1266666666667,201.82570062965004L227.82222222222222,204.812763918804L233.51777777777778,212.33287990657507L239.21333333333334,205.2620153785892L244.90888888888892,201.9366731496586L250.60444444444445,200.42588097981476L256.3,210.05443679838922L261.99555555555554,192.00059600061914L267.6911111111111,196.8157122672991L273.38666666666666,178.8554754148742L279.0822222222222,188.20518439190852L284.7777777777778,188.71124522579754L290.47333333333336,181.0365399598965L296.1688888888889,180.84813232505593L301.8644444444445,169.99114783319126L307.56,170.18210090311868L313.2555555555556,155.13242590666744L318.9511111111111,155.86566908873485L324.64666666666665,160.86277453644402L330.34222222222223,160.00871086540172L336.0377777777778,163.85819322388735L341.73333333333335,153.24042690924017L347.42888888888893,155.3911477271281L353.12444444444446,134.61123717523466L358.82,150.85621492859158L364.5155555555556,142.9466031679849L370.2111111111111,135.4411659346555L375.90666666666664,137.1619180322854L381.6022222222222,137.51262779773418L387.2977777777778,127.93882584257338L392.9933333333334,141.56506003936616L398.6888888888889,148.7366453715628L404.38444444444445,143.2009736891818L410.08000000000004,131.15810596538694L415.77555555555557,133.17187167294017L421.4711111111111,145.34855213506478L427.1666666666667,132.71080519146665L432.8622222222222,134.29447321202906L438.5577777777778,128.2922820845762L444.2533333333334,130.20648701811726L449.9488888888889,148.56497415298128L455.64444444444445,151.11740129538396L461.34000000000003,161.00338321137383L467.03555555555556,146.70943002752412L472.73111111111115,148.88244890508864L478.4266666666667,137.05260053708548L484.1222222222222,129.39301415460776L489.81777777777785,122.06834522528837L495.5133333333334,114.09242762716127" style="fill: none;" fill="none"></path></g></g></g></g><g opacity="0.2"><g><g><g><path stroke="rgb(51, 187, 238)" stroke-width="2px" d="M56.955555555555556,280.3392018556595L62.65111111111111,290.0150616645813L68.34666666666666,280.3392018556595L74.04222222222222,222.2846062660217L79.73777777777778,177.13100688457487L85.43333333333334,270.6634546995163L91.1288888888889,225.50985531806944L96.82444444444445,225.50985531806944L102.52000000000001,193.25736479759215L108.21555555555555,202.93311195373533L113.91111111111111,161.00476162433623L119.60666666666667,177.13100688457487L125.30222222222223,212.60885910987852L130.99777777777777,170.6805087804794L136.69333333333333,164.23001067638396L142.3888888888889,164.23001067638396L148.08444444444444,154.55426352024077L153.78,206.15836100578306L159.47555555555556,148.1037654161453L165.17111111111112,177.13100688457487L170.86666666666667,161.00476162433623L176.56222222222223,135.2027692079544L182.2577777777778,86.8239207744598L187.95333333333332,183.58161764144896L193.6488888888889,128.75227110385893L199.34444444444446,202.93311195373533L205.04000000000002,138.42801826000212L210.73555555555555,167.45525972843168L216.4311111111111,193.25736479759215L222.1266666666667,148.1037654161453L227.82222222222222,99.72491698265077L233.51777777777778,144.87851636409758L239.21333333333334,122.30166034698485L244.90888888888892,148.1037654161453L250.60444444444445,128.75227110385893L256.3,128.75227110385893L261.99555555555554,112.62591319084169L267.6911111111111,125.52690939903258L273.38666666666666,115.85116224288942L279.0822222222222,157.7795125722885L284.7777777777778,96.49966793060304" style="fill: none;" fill="none"></path></g><g><path stroke="rgb(255, 112, 67)" stroke-width="2px" d="M56.955555555555556,215.83410816192625L62.65111111111111,122.30166034698485L68.34666666666666,170.6805087804794L74.04222222222222,112.62591319084169L79.73777777777778,99.72491698265077L85.43333333333334,109.40066413879396L91.1288888888889,115.85116224288942L96.82444444444445,83.59867172241206L102.52000000000001,99.72491698265077L108.21555555555555,80.37342267036433L113.91111111111111,122.30166034698485L119.60666666666667,90.04916982650752L125.30222222222223,112.62591319084169L130.99777777777777,70.69756286144252L136.69333333333333,73.92281191349025L142.3888888888889,183.58161764144896L148.08444444444444,125.52690939903258L153.78,112.62591319084169L159.47555555555556,80.37342267036433L165.17111111111112,54.57131760120387L170.86666666666667,128.75227110385893L176.56222222222223,44.895570445060685L182.2577777777778,102.9501660346985L187.95333333333332,80.37342267036433L193.6488888888889,106.17541508674623L199.34444444444446,96.49966793060304L205.04000000000002,80.37342267036433L210.73555555555555,93.27441887855525L216.4311111111111,48.120819497108414" style="fill: none;" fill="none"></path></g><g><path stroke="rgb(238, 51, 119)" stroke-width="2px" d="M56.955555555555556,199.7078629016876L62.65111111111111,161.00476162433623L68.34666666666666,119.07641129493715L74.04222222222222,154.55426352024077L79.73777777777778,106.17541508674623L85.43333333333334,73.92281191349025L91.1288888888889,164.23001067638396L96.82444444444445,157.7795125722885L102.52000000000001,141.65326731204985L108.21555555555555,90.04916982650752L113.91111111111111,148.1037654161453L119.60666666666667,106.17541508674623L125.30222222222223,125.52690939903258L130.99777777777777,112.62591319084169L136.69333333333333,131.97752015590666L142.3888888888889,96.49966793060304" style="fill: none;" fill="none"></path></g><g><path stroke="rgb(0, 119, 187)" stroke-width="2px" d="M62.65111111111111,528.6839421272279L68.34666666666666,360.97065346241L74.04222222222222,219.05935721397398L79.73777777777778,164.23001067638396L85.43333333333334,83.59867172241206L91.1288888888889,112.62591319084169L96.82444444444445,22.318827080726578L102.52000000000001,22.318827080726578L108.21555555555555,28.769325184822037L113.91111111111111,31.994574236869767L119.60666666666667,41.670321393012955L125.30222222222223,70.69756286144252L130.99777777777777,15.868216323852494L136.69333333333333,-26.06002135276799L142.3888888888889,-9.933776092529342L148.08444444444444,2.9672201156615756L153.78,6.192469167709305L159.47555555555556,77.1481736183166" style="fill: none;" fill="none"></path></g><g><path stroke="rgb(0, 153, 136)" stroke-width="2px" d="M56.955555555555556,360.97065346241L62.65111111111111,286.7898126125336L68.34666666666666,348.06965725421907L74.04222222222222,293.24031071662904L79.73777777777778,267.4382056474686L85.43333333333334,315.81705408096315L91.1288888888889,335.1685483932495L96.82444444444445,238.410964179039L102.52000000000001,283.5644509077072L108.21555555555555,315.81705408096315L113.91111111111111,302.9160578727722L119.60666666666667,290.0150616645813L125.30222222222223,270.6634546995163L130.99777777777777,286.7898126125336L136.69333333333333,270.6634546995163L142.3888888888889,235.18571512699125L148.08444444444444,267.4382056474686L153.78,286.7898126125336L159.47555555555556,222.2846062660217L165.17111111111112,244.86146228313447L170.86666666666667,193.25736479759215L176.56222222222223,283.5644509077072L182.2577777777778,257.7624584913254L187.95333333333332,193.25736479759215L193.6488888888889,222.2846062660217L199.34444444444446,231.9603534221649L205.04000000000002,219.05935721397398L210.73555555555555,173.90575783252714L216.4311111111111,161.00476162433623L222.1266666666667,209.3836100578308L227.82222222222222,212.60885910987852L233.51777777777778,231.9603534221649L239.21333333333334,186.8068666934967L244.90888888888892,193.25736479759215L250.60444444444445,196.48261384963988L256.3,235.18571512699125L261.99555555555554,144.87851636409758L267.6911111111111,209.3836100578308L273.38666666666666,131.97752015590666L279.0822222222222,212.60885910987852L284.7777777777778,190.03211574554442L290.47333333333336,161.00476162433623L296.1688888888889,180.35636858940123L301.8644444444445,141.65326731204985L307.56,170.6805087804794L313.2555555555556,115.85116224288942L318.9511111111111,157.7795125722885L324.64666666666665,173.90575783252714L330.34222222222223,157.7795125722885L336.0377777777778,173.90575783252714L341.73333333333335,125.52690939903258L347.42888888888893,161.00476162433623L353.12444444444446,80.37342267036433L358.82,193.25736479759215L364.5155555555556,122.30166034698485L370.2111111111111,115.85116224288942L375.90666666666664,141.65326731204985L381.6022222222222,138.42801826000212L387.2977777777778,102.9501660346985L392.9933333333334,177.13100688457487L398.6888888888889,167.45525972843168L404.38444444444445,128.75227110385893L410.08000000000004,99.72491698265077L415.77555555555557,138.42801826000212L421.4711111111111,177.13100688457487L427.1666666666667,99.72491698265077L432.8622222222222,138.42801826000212L438.5577777777778,112.62591319084169L444.2533333333334,135.2027692079544L449.9488888888889,196.48261384963988L455.64444444444445,157.7795125722885L461.34000000000003,186.8068666934967L467.03555555555556,109.40066413879396L472.73111111111115,154.55426352024077L478.4266666666667,106.17541508674623L484.1222222222222,109.40066413879396L489.81777777777785,102.9501660346985L495.5133333333334,93.27441887855525" style="fill: none;" fill="none"></path></g></g></g></g></g></g><g transform="translate(58, 378)" clip-path="url(#clip_1)"><clipPath id="clip_1"><rect width="512" height="22"></rect></clipPath><g><g><line x1="0" y1="0" x2="0" y2="5" style="visibility: inherit;" fill="rgb(0, 0, 0)" stroke="rgb(204, 204, 204)" stroke-width="1px"></line><line x1="56.955555555555556" y1="0" x2="56.955555555555556" y2="5" style="visibility: inherit;" fill="rgb(0, 0, 0)" stroke="rgb(204, 204, 204)" stroke-width="1px"></line><line x1="113.91111111111111" y1="0" x2="113.91111111111111" y2="5" style="visibility: inherit;" fill="rgb(0, 0, 0)" stroke="rgb(204, 204, 204)" stroke-width="1px"></line><line x1="170.86666666666667" y1="0" x2="170.86666666666667" y2="5" style="visibility: inherit;" fill="rgb(0, 0, 0)" stroke="rgb(204, 204, 204)" stroke-width="1px"></line><line x1="227.82222222222222" y1="0" x2="227.82222222222222" y2="5" style="visibility: inherit;" fill="rgb(0, 0, 0)" stroke="rgb(204, 204, 204)" stroke-width="1px"></line><line x1="284.7777777777778" y1="0" x2="284.7777777777778" y2="5" style="visibility: inherit;" fill="rgb(0, 0, 0)" stroke="rgb(204, 204, 204)" stroke-width="1px"></line><line x1="341.73333333333335" y1="0" x2="341.73333333333335" y2="5" style="visibility: inherit;" fill="rgb(0, 0, 0)" stroke="rgb(204, 204, 204)" stroke-width="1px"></line><line x1="398.6888888888889" y1="0" x2="398.6888888888889" y2="5" style="visibility: inherit;" fill="rgb(0, 0, 0)" stroke="rgb(204, 204, 204)" stroke-width="1px"></line><line x1="455.64444444444445" y1="0" x2="455.64444444444445" y2="5" style="visibility: inherit;" fill="rgb(0, 0, 0)" stroke="rgb(204, 204, 204)" stroke-width="1px"></line><line x1="512.6" y1="0" x2="512.6" y2="5" style="visibility: inherit;" fill="rgb(0, 0, 0)" stroke="rgb(204, 204, 204)" stroke-width="1px"></line></g><g transform="translate(0, 8)"><text x="0" y="0" dx="0em" dy="0.95em" style="text-anchor: middle; visibility: hidden; font-family: &quot;Helvetica Neue&quot;, sans-serif; font-size: 12px; font-weight: 200;" fill="rgb(50, 49, 63)" stroke="none" stroke-width="1px">-10</text><text x="56.955555555555556" y="0" dx="0em" dy="0.95em" style="text-anchor: middle; visibility: inherit; font-family: &quot;Helvetica Neue&quot;, sans-serif; font-size: 12px; font-weight: 200;" fill="rgb(50, 49, 63)" stroke="none" stroke-width="1px">0</text><text x="113.91111111111111" y="0" dx="0em" dy="0.95em" style="text-anchor: middle; visibility: inherit; font-family: &quot;Helvetica Neue&quot;, sans-serif; font-size: 12px; font-weight: 200;" fill="rgb(50, 49, 63)" stroke="none" stroke-width="1px">10</text><text x="170.86666666666667" y="0" dx="0em" dy="0.95em" style="text-anchor: middle; visibility: inherit; font-family: &quot;Helvetica Neue&quot;, sans-serif; font-size: 12px; font-weight: 200;" fill="rgb(50, 49, 63)" stroke="none" stroke-width="1px">20</text><text x="227.82222222222222" y="0" dx="0em" dy="0.95em" style="text-anchor: middle; visibility: inherit; font-family: &quot;Helvetica Neue&quot;, sans-serif; font-size: 12px; font-weight: 200;" fill="rgb(50, 49, 63)" stroke="none" stroke-width="1px">30</text><text x="284.7777777777778" y="0" dx="0em" dy="0.95em" style="text-anchor: middle; visibility: inherit; font-family: &quot;Helvetica Neue&quot;, sans-serif; font-size: 12px; font-weight: 200;" fill="rgb(50, 49, 63)" stroke="none" stroke-width="1px">40</text><text x="341.73333333333335" y="0" dx="0em" dy="0.95em" style="text-anchor: middle; visibility: inherit; font-family: &quot;Helvetica Neue&quot;, sans-serif; font-size: 12px; font-weight: 200;" fill="rgb(50, 49, 63)" stroke="none" stroke-width="1px">50</text><text x="398.6888888888889" y="0" dx="0em" dy="0.95em" style="text-anchor: middle; visibility: inherit; font-family: &quot;Helvetica Neue&quot;, sans-serif; font-size: 12px; font-weight: 200;" fill="rgb(50, 49, 63)" stroke="none" stroke-width="1px">60</text><text x="455.64444444444445" y="0" dx="0em" dy="0.95em" style="text-anchor: middle; visibility: inherit; font-family: &quot;Helvetica Neue&quot;, sans-serif; font-size: 12px; font-weight: 200;" fill="rgb(50, 49, 63)" stroke="none" stroke-width="1px">70</text><text x="512.6" y="0" dx="0em" dy="0.95em" style="text-anchor: middle; visibility: hidden; font-family: &quot;Helvetica Neue&quot;, sans-serif; font-size: 12px; font-weight: 200;" fill="rgb(50, 49, 63)" stroke="none" stroke-width="1px">80</text></g><line x1="0" y1="0" x2="512.6" y2="0" fill="rgb(0, 0, 0)" stroke="rgb(204, 204, 204)" stroke-width="1px"></line></g></g></g></g></svg>